<svg width="38" height="38" viewBox="0 0 38 38" fill="none" xmlns="http://www.w3.org/2000/svg">
<g filter="url(#filter0_dd_1083_50505)">
<path d="M8.66138 14.7987C8.9499 14.7771 9.71063 14.768 10.0015 14.7891C10.0037 15.6508 10.0504 17.3134 10.0589 18.2492C10.0661 18.2566 10.0734 18.2639 10.0806 18.2712C10.3568 18.3427 10.3021 18.3557 10.3107 18.6287C10.3131 18.7048 10.3181 18.88 10.2241 18.9214C10.1002 18.9568 9.44799 18.8813 9.39192 18.9788C9.41084 19.0045 9.4163 19.0173 9.45899 19.0188C9.67297 19.0267 9.89929 19.0245 10.1128 19.0226L10.1517 24.4161C10.2975 24.4207 10.4434 24.4225 10.5892 24.4215C10.5907 24.1469 10.5902 23.8725 10.5879 23.598C10.9504 23.5928 11.313 23.5901 11.6757 23.5901C11.6537 22.6414 11.6852 21.6851 11.6694 20.7357C11.6687 20.6956 11.6664 20.6967 11.6412 20.6692L11.6247 20.6649C11.5789 20.6527 11.559 20.6522 11.5303 20.616C11.5115 20.5648 11.5187 20.5366 11.5234 20.4823C12.4653 20.4831 13.4724 20.4629 14.4071 20.4831C14.4076 20.5084 14.4097 20.6355 14.4046 20.6517C14.3574 20.8033 14.1158 21.0803 14.0974 21.2352C14.0739 21.4341 14.0888 21.7712 14.0918 21.9746C14.1652 22.0678 14.0873 22.8751 14.1295 23.0457C14.1573 23.0507 14.1851 23.0558 14.2129 23.061C14.313 23.0573 14.4028 23.0533 14.5032 23.0583C14.5213 23.0529 14.5243 23.0483 14.5408 23.0375C14.5728 22.9811 14.565 22.8756 14.5626 22.8098C14.5553 22.6076 14.5574 22.4053 14.5571 22.2031C14.5571 22.2001 14.5215 22.1545 14.518 22.1501L14.5259 22.1195C14.6059 22.0546 16.6714 22.1157 16.9427 22.0915C16.9682 22.0893 16.9897 22.109 17.004 22.1298C16.9658 22.1922 16.9821 22.9033 16.9821 23.0251C17.0743 23.028 17.2418 23.0492 17.306 22.9903C17.3111 22.744 17.2975 22.518 17.2965 22.2739L17.2951 20.5776C17.4987 20.5601 17.7098 20.5032 17.9157 20.4838C18.1652 20.4602 18.4143 20.4136 18.6656 20.4165C19.1757 20.3686 19.8242 20.3819 20.3371 20.3875C20.8975 20.3885 21.3884 20.4304 21.9445 20.4966C22.1243 20.5181 22.3977 20.5701 22.5566 20.582C22.5615 20.8707 22.537 23.0737 22.5819 23.1282C22.6541 23.144 22.8173 23.1278 22.8996 23.1253C22.897 22.9038 22.8804 22.6856 22.8919 22.4638C22.897 22.3667 22.8777 22.276 22.8746 22.1812C23.7002 22.1868 24.5259 22.1882 25.3515 22.1853C25.3505 22.3563 25.3315 23.0048 25.3768 23.1252C25.4366 23.1725 25.7264 23.1492 25.8245 23.1484C25.8234 22.863 25.8596 21.7129 25.7951 21.5391C25.7166 21.328 25.5385 21.2362 25.4597 20.982C26.3944 20.9651 27.34 20.9925 28.2739 20.9759C28.2751 21.0337 28.2829 21.0775 28.254 21.1254C28.2117 21.1615 28.196 21.1652 28.1435 21.1851C28.1057 21.2317 28.1204 22.0529 28.1205 22.1681L28.1211 24.0952C28.513 24.1058 28.9002 24.0918 29.293 24.0929C29.2937 24.3062 29.3142 25.2728 29.2684 25.3928C29.2333 25.4068 27.6587 25.0581 27.4636 24.9995C26.9042 24.8317 26.1981 24.6775 25.6372 24.5133C24.4065 24.1618 23.1877 23.77 21.9827 23.3385C21.8185 23.279 21.6532 23.2234 21.4887 23.162C20.9026 22.9431 20.3321 22.6813 19.7558 22.4396C19.7298 22.4286 19.4927 22.5446 19.4551 22.5631C18.8411 22.8638 18.199 23.0931 17.5645 23.3438C17.4604 23.385 17.3406 23.4099 17.233 23.4465C15.6117 24.0015 13.9638 24.4751 12.2954 24.8655C11.298 25.0906 10.2967 25.2984 9.29212 25.4889C8.82277 25.5808 8.3521 25.6658 7.88025 25.744C7.81222 25.7552 7.51254 25.8088 7.45792 25.8042C7.41318 25.6907 7.42942 24.6323 7.43124 24.4255C7.77001 24.4245 8.17911 24.4349 8.51178 24.4212L8.53918 20.4611C8.54087 20.3093 8.55749 20.1568 8.55913 20.0089C8.56276 19.6826 8.56343 19.3521 8.56036 19.026C8.70944 19.0257 9.16823 19.0455 9.26574 18.9881L9.27775 18.9602L9.26324 18.9415C9.00961 18.9127 8.69586 18.954 8.44688 18.9151C8.31785 18.8949 8.32968 18.4943 8.35425 18.379C8.42071 18.2844 8.60207 18.2823 8.6098 18.2465C8.63575 18.061 8.61854 17.855 8.6242 17.6697C8.64017 17.1471 8.60694 16.6025 8.63344 16.0829C8.65578 15.6448 8.66078 15.2378 8.66138 14.7987ZM20.9772 22.3447C20.9998 22.0817 20.9877 21.7199 20.9718 21.4538C20.9641 21.3273 20.8074 21.1232 20.6636 21.1397C20.2997 21.3465 20.4386 21.6758 20.4141 22.03C20.4074 22.1272 20.4151 22.2415 20.4147 22.341L20.7402 22.3425L20.9772 22.3447ZM19.085 22.3418L19.3391 22.3407C19.34 22.115 19.3391 21.891 19.3417 21.663C19.3435 21.4922 19.3337 21.2972 19.1745 21.1892C19.1217 21.1534 19.1084 21.1366 19.0421 21.1417C18.8641 21.2647 18.7875 21.3475 18.7803 21.5752C18.7723 21.83 18.7833 22.0861 18.7774 22.341L19.085 22.3418ZM21.9515 22.3425C21.9474 22.0492 21.9668 21.7182 21.9316 21.428C21.9164 21.3023 21.7747 21.1285 21.6266 21.1682C21.2828 21.4007 21.4062 21.696 21.3867 22.0584C21.3818 22.1487 21.3885 22.2506 21.3897 22.342L21.7563 22.3428L21.9515 22.3425ZM17.8154 22.3411C17.9233 22.3431 18.0313 22.3438 18.1393 22.3435C18.2114 22.3428 18.3016 22.3447 18.372 22.3411C18.3742 22.106 18.4798 21.0633 18.0456 21.1673C17.9052 21.2652 17.8188 21.3641 17.8137 21.5436C17.806 21.8084 17.8178 22.0763 17.8154 22.3411ZM24.6017 22.4346C24.5764 22.4761 24.4976 22.5249 24.4911 22.5465C24.4381 22.7213 24.4621 22.945 24.4622 23.129L24.7019 23.1265C24.7498 23.1265 24.7957 23.1329 24.8342 23.109C24.8757 23.0162 24.8649 22.6947 24.8272 22.5891C24.7915 22.489 24.7131 22.4235 24.6017 22.4346ZM15.2527 22.3512C15.0037 22.4443 15.09 22.8039 15.0832 23.028L15.3324 23.0276L15.46 23.0271C15.4622 22.8702 15.4693 22.7159 15.4556 22.5595C15.4475 22.4666 15.3489 22.3292 15.2527 22.3512ZM16.3048 23.027L16.4535 23.0253C16.4552 22.8719 16.5151 22.3289 16.2524 22.3495C15.9991 22.4726 16.0834 22.7845 16.0779 23.0277L16.3048 23.027ZM12.7257 22.01C12.7737 21.9378 12.758 21.3101 12.721 21.2025C12.6395 20.9655 12.2869 21.0586 12.2915 21.3158C12.2936 21.4358 12.2748 21.9447 12.3187 22.0122L12.3151 22.0262C12.3787 22.0367 12.7012 22.0459 12.7422 22.0179L12.7257 22.01ZM23.8788 22.6795C23.8534 22.5804 23.7425 22.4288 23.6341 22.4336C23.3662 22.5638 23.463 22.8674 23.4543 23.1259C23.5528 23.1265 23.7941 23.1356 23.8798 23.1113C23.9098 23.0712 23.9107 22.7251 23.8788 22.6795ZM9.08523 18.1871C9.19652 18.1904 9.30786 18.1906 9.41914 18.1878L9.59193 18.1881C9.59283 17.9546 9.6928 17.0414 9.28901 17.1308C9.06114 17.2354 9.0863 17.42 9.08543 17.6345C9.08468 17.8177 9.09315 18.0041 9.08523 18.1871ZM13.2888 21.9989L13.5203 22L13.7279 21.9976C13.7304 21.7516 13.8325 21.0805 13.4919 21.0476C13.266 21.1474 13.2841 21.333 13.2881 21.5461C13.291 21.6973 13.2928 21.8476 13.2888 21.9989ZM26.5783 22.4703L26.8712 22.4709L27.0622 22.4721C27.0615 22.17 27.1715 21.5762 26.7878 21.5327C26.7302 21.5625 26.5998 21.6508 26.5915 21.7112C26.5603 21.9386 26.5742 22.242 26.5783 22.4703Z" fill="#17B26A"/>
<path d="M18.6656 20.4165C19.1757 20.3686 19.8242 20.3819 20.3371 20.3875C20.3775 20.395 20.4177 20.4035 20.4578 20.413L20.4607 20.426C20.1458 20.4325 19.8233 20.4199 19.5072 20.4285C19.3995 20.4315 18.7217 20.4803 18.666 20.4457L18.6656 20.4165Z" fill="#17B26A"/>
<path d="M14.0725 22.8402C14.0697 22.702 14.0365 22.0414 14.0918 21.9746C14.0675 22.2081 14.0971 22.5833 14.0843 22.8425L14.0725 22.8402Z" fill="#17B26A"/>
<path d="M14.2129 23.061C14.313 23.0573 14.4028 23.0533 14.5032 23.0583L14.4997 23.0817C14.4543 23.112 14.2547 23.1115 14.2033 23.0897L14.2129 23.061Z" fill="#17B26A"/>
<path d="M8.58322 19.0582C8.74966 19.0722 9.01515 19.0622 9.19541 19.0683C9.08253 19.0907 8.74155 19.0932 8.60986 19.0959L8.5991 21.0438C8.59987 21.2192 8.59712 21.4389 8.58933 21.6166C8.58851 21.6352 8.58436 21.6215 8.58905 21.6581L8.5911 21.6322C8.57686 21.6073 8.58315 19.2786 8.58322 19.0582Z" fill="#17B26A"/>
<path d="M10.0775 20.9715C10.1218 21.032 10.1083 21.2006 10.1079 21.2817C10.1038 22.12 10.1156 22.9592 10.1057 23.7973C10.0783 23.6765 10.094 22.951 10.0926 22.7739C10.0881 22.1843 10.0711 21.5606 10.0775 20.9715Z" fill="#17B26A"/>
<path d="M12.3187 22.0122C12.3935 21.994 12.6561 21.993 12.7257 22.01L12.7422 22.0179C12.7012 22.0459 12.3787 22.0367 12.3151 22.0262L12.3187 22.0122Z" fill="#17B26A"/>
<path d="M23.8798 23.1113C23.9098 23.0712 23.9107 22.7251 23.8788 22.6795C23.8582 22.7589 23.8559 23.0409 23.8798 23.1113Z" fill="#17B26A"/>
<path d="M20.5011 20.4324C20.613 20.4295 20.995 20.4139 21.0886 20.4466C20.9714 20.4662 20.6178 20.4611 20.5011 20.4324Z" fill="#17B26A"/>
<path d="M19.7098 12.6853C19.7039 12.6216 19.7139 12.6167 19.6784 12.5714C19.589 12.5428 19.422 12.5232 19.3536 12.4939C18.4355 12.1001 18.5117 10.7221 19.4991 10.4849L19.506 10.4981C19.442 10.6235 19.3876 10.6152 19.329 10.6972C18.8168 11.4128 19.5543 12.3557 20.3705 12.132C20.5435 12.0846 20.6279 11.9739 20.745 11.9411L20.7569 11.9514C20.7335 12.0474 20.708 12.0525 20.6609 12.1184C20.4565 12.4042 20.1525 12.5653 19.801 12.5748C19.7467 12.5763 19.7415 12.619 19.7395 12.6662C19.7672 13.0242 19.8871 12.9974 20.0219 13.2823C20.0884 13.4232 19.8502 13.5625 19.8134 13.6285C19.8017 13.7542 19.8748 13.7519 19.936 13.8476C20.0186 13.9767 19.8924 14.0252 19.8641 14.1376C19.8726 14.191 19.9247 14.2301 19.9565 14.2752C20.1548 14.5569 19.8827 14.6395 19.8701 14.7517C19.9143 14.783 20.1533 15.0827 20.2045 15.1448C21.2838 16.4551 23.6385 16.7316 23.7235 18.7366C23.7577 19.4175 23.3083 20.1033 22.7 20.3836C22.4776 20.3734 22.0503 20.2834 21.8484 20.249C20.2154 19.9713 18.7237 20.053 17.0955 20.4003C16.75 20.2965 16.2466 19.9154 16.0775 19.596C15.3444 18.188 16.3638 17.0765 17.5506 16.4299C18.3005 16.0214 19.0753 15.456 19.5887 14.7635C19.5998 14.7485 19.246 14.3529 19.5581 14.2294C19.6933 14.1759 19.4856 13.9957 19.4936 13.9186C19.6434 13.6078 19.7683 13.6986 19.4738 13.4407C19.3105 13.2975 19.6866 12.946 19.7098 12.6853Z" fill="#17B26A"/>
<path d="M15.7819 25.2903C16.9869 25.2579 18.0883 25.2738 19.2857 25.2912C20.4545 25.3077 21.6223 25.3602 22.7879 25.4486C24.4449 25.5567 26.0988 25.7087 27.7479 25.9044L30.1249 26.1855C30.656 26.2501 31.1637 26.2754 31.6749 26.4448C31.8446 26.5011 32.0246 26.5501 32.1965 26.6025L33.4754 27.0011C33.535 27.0202 33.5886 27.0543 33.6412 27.0711L34.2369 27.2601C34.2394 27.2614 34.2416 27.2628 34.2439 27.2643L34.2605 27.3264C34.2428 27.342 34.2351 27.3483 34.2155 27.3615L34.231 27.4163C30.9742 26.8643 27.6897 26.4907 24.3923 26.297C23.3908 26.2351 22.3922 26.1833 21.3892 26.1486C21.3183 26.1462 21.2468 26.1463 21.1759 26.1469C21.1205 26.151 21.082 26.1421 21.0275 26.1335C20.4819 26.1344 19.9482 26.1016 19.4059 26.0964C18.4088 26.0869 17.4146 26.0933 16.4183 26.1239L14.5683 26.1902C13.1717 26.2397 11.7771 26.3348 10.3867 26.4752C10.0365 26.508 9.68247 26.5423 9.33199 26.5689C9.29957 26.5714 9.26468 26.587 9.22672 26.5917L7.93052 26.7479C7.2228 26.8292 6.51724 26.9283 5.8145 27.0451C5.6431 27.0725 5.43629 27.0976 5.27069 27.1278L3.95196 27.3737C3.81129 27.4008 3.49305 27.4772 3.36872 27.4908C3.32343 27.4894 3.30234 27.4914 3.25973 27.4779L3.24773 27.4443C3.36235 27.3498 4.03789 27.1706 4.21094 27.093C4.26052 27.0708 4.31592 27.0438 4.36731 27.0261C5.11208 26.7677 5.86727 26.5406 6.63094 26.3452C6.70897 26.326 6.78881 26.3079 6.86762 26.2923C7.38921 26.1891 7.90909 26.0871 8.43173 25.9896C8.93506 25.8905 9.44138 25.8074 9.94996 25.7401C10.0605 25.7263 10.1677 25.6878 10.2728 25.6962C10.3803 25.7047 10.4379 25.6794 10.5379 25.6674L11.086 25.6017C11.3592 25.5669 11.6572 25.5423 11.9356 25.5147C12.5516 25.4593 13.1685 25.4142 13.7861 25.3796C14.4454 25.3375 15.1208 25.292 15.7819 25.2903Z" fill="#17B26A"/>
<path d="M15.7819 25.2903C16.9869 25.2579 18.0883 25.2738 19.2857 25.2912C19.2668 25.3175 19.2648 25.3322 19.2331 25.3327C19.1292 25.3342 19.0144 25.3312 18.9109 25.3298C18.6573 25.3258 18.4036 25.3233 18.15 25.3224L16.8053 25.323C16.5051 25.3253 16.2038 25.3294 15.9036 25.3266C15.8305 25.3258 15.8303 25.3263 15.7819 25.2903Z" fill="#17B26A"/>
<path d="M21.0275 26.1335C21.0899 26.0711 21.3074 26.0943 21.3959 26.1068L21.3966 26.1149C21.2993 26.1196 21.2684 26.1203 21.1759 26.1469C21.1205 26.151 21.082 26.1421 21.0275 26.1335Z" fill="#17B26A"/>
<path d="M11.8163 25.3551C11.8559 25.3139 12.2355 25.2447 12.311 25.2283C12.6724 25.1522 13.0327 25.0716 13.3921 24.9867C14.9031 24.6402 16.3935 24.2096 17.8565 23.6971C18.3141 23.5305 18.7668 23.3509 19.214 23.1582C19.3014 23.1215 19.7071 22.9366 19.7587 22.9231C20.1933 23.0958 20.614 23.2936 21.0534 23.4598C21.3136 23.557 21.5754 23.6505 21.8382 23.7405L22.3932 23.9242C22.8498 24.0797 23.3194 24.2264 23.7822 24.3617L24.5258 24.5769C25.4874 24.8463 26.453 25.101 27.4224 25.3408C27.8313 25.4411 28.3944 25.5495 28.7888 25.6647C28.7524 25.7032 28.7623 25.6911 28.6995 25.704C28.7286 25.716 28.7653 25.7131 28.7979 25.7134C28.7349 25.7612 28.5248 25.7471 28.4181 25.757C28.2329 25.762 27.8343 25.7104 27.6391 25.6891L26.5742 25.5812C25.6244 25.4825 24.6733 25.3982 23.7209 25.3283C20.8819 25.102 18.0313 25.0574 15.1865 25.1947C14.5498 25.2258 13.9138 25.2697 13.2789 25.326C13.2018 25.3328 13.1335 25.3544 13.0555 25.3551C12.6827 25.3581 12.3048 25.4329 11.9308 25.4502L11.9161 25.4297C11.8517 25.4071 11.814 25.4317 11.7756 25.4169L11.7766 25.3916C11.8007 25.3793 11.7995 25.3763 11.8163 25.3551Z" fill="#17B26A"/>
<path d="M16.6436 25.0795C16.8783 25.0611 17.3985 25.0666 17.6339 25.0773L17.6261 25.0949C17.3956 25.0957 16.8352 25.1129 16.6308 25.0916L16.6436 25.0795Z" fill="#17B26A"/>
<path d="M13.0128 17.3746C13.0628 17.3483 13.0626 17.3364 13.1025 17.3471C13.123 17.4091 13.1109 17.446 13.1314 17.4998C13.1736 17.5408 13.2108 17.5945 13.1748 17.649C13.1143 17.7498 13.2347 17.8277 13.2918 17.8942C13.6293 18.2837 14.11 18.415 14.4957 18.7462C15.0119 19.1893 15.0277 19.8918 14.4257 20.2608C14.4187 20.2652 14.2031 20.2684 14.1794 20.2684C13.4241 20.2691 12.6685 20.2699 11.9132 20.2678C11.681 20.2672 11.6828 20.2698 11.5144 20.1063C11.1625 19.7648 11.2248 19.3 11.4736 18.9208C11.51 18.8652 11.5893 18.8217 11.6366 18.7732C11.8311 18.5407 12.1506 18.4344 12.3998 18.2747C12.5499 18.1786 12.7046 18.0368 12.8353 17.9151C12.8651 17.8873 12.9281 17.852 12.9515 17.825C13.0601 17.6992 12.8863 17.6435 13.023 17.5047L13.034 17.4938L13.0314 17.4622C12.9976 17.4243 12.9831 17.4179 13.0128 17.3746Z" fill="#17B26A"/>
<path d="M26.6951 18.118C26.7578 18.2268 26.747 18.4125 26.7617 18.5283C26.7629 18.5382 26.8856 18.6514 26.9066 18.6699C27.0472 18.7944 27.1988 18.9058 27.3597 19.0028C27.6074 19.1541 27.8583 19.2674 28.0587 19.4882C28.2605 19.7108 28.3304 19.9432 28.3104 20.2414C28.2991 20.4091 28.1465 20.62 28.0237 20.7281C27.9988 20.75 27.969 20.779 27.937 20.7891C27.8903 20.804 25.6262 20.7985 25.4655 20.7878C25.1484 20.6004 24.9442 20.3397 25.0175 19.9443C25.1187 19.3979 25.6637 19.1937 26.0768 18.9288C26.2553 18.8143 26.4555 18.6605 26.5971 18.4991C26.6204 18.4709 26.5574 18.3401 26.5723 18.3123C26.6113 18.24 26.6237 18.2071 26.641 18.1259C26.6561 18.1239 26.6812 18.1215 26.6951 18.118Z" fill="#17B26A"/>
<path d="M8.74493 11.7541C8.86369 11.7236 9.69155 11.7425 9.88795 11.7359C9.89448 11.7451 9.90102 11.7542 9.90756 11.7633C9.93203 12.4063 9.93755 13.3278 9.9421 13.9373C10.3479 14.0025 10.3044 14.0509 10.3108 14.42C10.2595 14.5116 10.2216 14.5856 10.1306 14.6415C9.71088 14.7021 8.95201 14.6356 8.51301 14.6308C8.45663 14.6302 8.01673 13.9762 8.72347 13.9404C8.73643 13.5141 8.72353 13.0678 8.73635 12.6371C8.74148 12.4652 8.76443 11.9007 8.74493 11.7541Z" fill="#17B26A"/>
<path d="M8.74493 11.7541C8.86369 11.7236 9.69155 11.7425 9.88795 11.7359L9.88374 11.7511C9.87119 11.7975 9.86488 11.8089 9.87216 11.8565L9.85566 11.8653C9.85422 11.8474 9.85149 11.8299 9.84869 11.8121C9.77536 11.769 9.05863 11.8174 8.92802 11.7974C8.85214 11.7857 8.78099 11.8371 8.74493 11.7541Z" fill="#17B26A"/>
<path d="M9.20355 6.44073L9.21705 6.44171L9.21444 6.46848C9.20419 6.47586 9.19424 6.48365 9.18461 6.49182C8.74288 6.86683 8.73683 7.48445 9.11424 7.90858C9.30152 8.12007 9.56581 8.24758 9.8479 8.26259C10.1231 8.27858 10.3929 8.18165 10.595 7.99418L10.6023 7.9874L10.6246 7.99175L10.6303 8.03031C10.6009 8.11714 10.4542 8.29976 10.3865 8.36434C10.0603 8.67538 9.77151 8.71577 9.34091 8.71595C9.34987 8.91754 9.40879 9.02253 9.45637 9.21627C9.47917 9.30911 9.43327 9.31799 9.38199 9.39049C9.50795 9.59591 9.43123 9.48474 9.41163 9.65683C9.50448 9.92803 9.92449 9.81011 9.91052 10.5586C9.91104 10.7211 9.91663 10.9638 9.90172 11.1199C9.52448 11.1129 9.13522 11.1185 8.75711 11.1197C8.74208 10.883 8.75346 10.6251 8.75131 10.3967C8.74806 10.0506 8.98165 9.90379 9.22873 9.71822C9.25764 9.69651 9.2602 9.6723 9.26104 9.63903C9.13388 9.47063 9.27349 9.48649 9.26516 9.38095C9.16386 9.27521 9.19099 9.2471 9.23776 9.1163C9.29297 8.96191 9.32447 8.86743 9.32504 8.70146C9.19005 8.68409 9.10814 8.65285 8.98899 8.59576C8.40123 8.31415 8.18495 7.55457 8.49243 6.98902C8.57819 6.83131 8.75919 6.65724 8.91015 6.55537C8.97163 6.51387 9.12824 6.4659 9.20355 6.44073Z" fill="#17B26A"/>
<path d="M15.7856 20.1784C15.8532 20.2232 16.0463 20.4554 16.1457 20.5248C16.36 20.6751 16.5841 20.7593 16.7705 20.9508C17.0257 21.2131 17.151 21.6096 16.8572 21.8937C16.851 21.8997 16.781 21.9655 16.7791 21.9655C16.4474 21.9767 16.1124 21.9706 15.78 21.9707C15.446 21.9692 15.0984 21.9847 14.7677 21.9653C14.623 21.8931 14.5325 21.6067 14.5335 21.4921C14.5381 21.0054 14.9751 20.7986 15.3278 20.5727C15.4928 20.4669 15.65 20.3224 15.7856 20.1784Z" fill="#17B26A"/>
<path d="M24.0936 20.2961C24.1759 20.29 24.3747 20.5586 24.4767 20.6136C24.9621 20.8755 25.6615 21.3596 25.2055 21.9731C25.2009 21.9794 25.1478 22.0244 25.1457 22.0246C24.7986 22.0584 24.4433 22.0385 24.0943 22.0378C23.9782 22.0361 23.0866 22.0573 23.0639 22.0472C22.9996 22.019 22.9067 21.8519 22.8818 21.7881C22.8473 21.6991 22.82 21.5442 22.8602 21.4552C22.8939 21.3806 22.9051 21.2737 22.9506 21.2079C23.1689 20.8926 23.4077 20.8369 23.6975 20.644C23.8288 20.5566 23.9694 20.422 24.0801 20.3099L24.0936 20.2961Z" fill="#17B26A"/>
<path d="M8.62202 11.2054C8.70578 11.1976 9.1034 11.2008 9.20052 11.2036C9.40387 11.2096 9.87729 11.1843 10.0551 11.2151C10.0559 11.3312 10.0798 11.5605 10.014 11.6441L8.60365 11.6417C8.60132 11.5496 8.58263 11.2714 8.62202 11.2054Z" fill="#17B26A"/>
<path d="M13.0128 17.3746C13.0257 17.3491 13.0726 17.2672 13.0534 17.2452C12.9364 17.111 12.7275 17.0635 12.8223 16.8262C12.8555 16.7434 12.9333 16.575 13.0422 16.6102C13.0276 16.6454 12.9454 16.682 12.9393 16.7553C12.9343 16.8151 12.9348 16.8587 12.9485 16.918C13.1625 17.1572 13.1624 17.1121 13.4257 16.9782C13.4183 17.2098 13.2117 17.155 13.1462 17.2471C13.1257 17.3718 13.1982 17.3762 13.1314 17.4998C13.1109 17.446 13.123 17.4091 13.1025 17.3471C13.0626 17.3364 13.0628 17.3483 13.0128 17.3746Z" fill="#17B26A"/>
<path d="M26.641 18.1259C26.6103 18.0003 26.2413 17.9088 26.4585 17.5776C26.492 17.5263 26.5844 17.4497 26.6447 17.444L26.6455 17.4636C26.3239 17.7355 26.7621 18.0957 26.9761 17.8251L26.9947 17.8319C27.0152 17.971 26.8326 18.059 26.7153 18.0729L26.6951 18.118C26.6812 18.1215 26.6561 18.1239 26.641 18.1259Z" fill="#17B26A"/>
<path d="M28.7888 25.6647C28.9614 25.6942 29.7015 25.876 29.8453 25.9304C29.7335 25.9307 28.4895 25.799 28.4181 25.757C28.5248 25.7471 28.7349 25.7612 28.7979 25.7134C28.7653 25.7131 28.7286 25.716 28.6995 25.704C28.7623 25.6911 28.7524 25.7032 28.7888 25.6647Z" fill="#17B26A"/>
<path d="M10.848 25.5409C11.0053 25.4859 11.6585 25.3513 11.8163 25.3551C11.7995 25.3763 11.8007 25.3793 11.7766 25.3916L11.7756 25.4169C11.814 25.4317 11.8517 25.4071 11.9161 25.4297L11.9308 25.4502C11.6766 25.4842 11.4127 25.4866 11.1579 25.5211C11.0436 25.5366 10.9643 25.5463 10.848 25.5409Z" fill="#17B26A"/>
<path d="M34.2439 27.2643C34.4405 27.3223 34.647 27.4378 34.8484 27.4922C34.8997 27.506 34.9387 27.5124 34.9903 27.5309L35 27.5492C34.9738 27.5617 34.2793 27.4379 34.231 27.4163L34.2155 27.3615C34.2351 27.3483 34.2428 27.342 34.2605 27.3264L34.2439 27.2643Z" fill="#17B26A"/>
<path d="M3.36872 27.4908C3.29749 27.5076 3.05667 27.5717 3 27.543C3.07307 27.501 3.16702 27.4723 3.24773 27.4443L3.25973 27.4779C3.30234 27.4914 3.32343 27.4894 3.36872 27.4908Z" fill="#17B26A"/>
<path d="M21.6159 6H23.1014C23.233 6.02941 23.4026 6.01796 23.5438 6.03601C24.1845 6.11789 24.8458 6.19358 25.4619 6.3943C25.5471 6.42201 25.5901 6.40074 25.6868 6.44393C25.8975 6.53801 26.1295 6.55064 26.335 6.667C26.4011 6.70446 26.5522 6.72358 26.6229 6.76172C26.9214 6.8871 27.2204 7.01625 27.5098 7.16149C27.5995 7.20649 27.6703 7.26348 27.778 7.28712C27.8019 7.29237 27.8898 7.37481 27.9251 7.3851C28.2291 7.55917 28.5469 7.73749 28.8243 7.95078C28.9359 8.03656 29.0659 8.11536 29.1827 8.20573C30.2383 9.00732 31.1158 10.0195 31.7594 11.178C31.782 11.2177 31.8123 11.2515 31.8346 11.291C31.9969 11.5778 32.1263 11.8885 32.2525 12.1922C32.2836 12.2672 32.3244 12.342 32.3517 12.4175C32.4061 12.5681 32.7181 13.5399 32.7111 13.6327C32.7046 13.72 32.7466 13.785 32.7633 13.8686C32.7955 14.0313 32.8208 14.1976 32.8441 14.3619C32.8819 14.6291 32.9025 14.9014 32.9219 15.1707C32.929 15.2709 32.92 15.3799 32.9355 15.4781C32.9496 15.6147 32.9409 15.8248 32.9369 15.967C32.915 17.1741 32.5579 18.6218 32.0335 19.7097C31.5565 20.6994 30.7801 21.7668 29.9896 22.528C29.886 22.6276 29.7588 22.716 29.6718 22.8309L29.6341 22.7523C29.6371 22.7443 29.9377 22.3529 29.9725 22.3036C30.4843 21.5819 30.8955 20.7938 31.1948 19.9611C31.8535 18.0916 31.936 16.0675 31.4311 14.1507C31.1584 13.1322 30.6976 12.1273 30.1232 11.2446C28.8715 9.33951 27.0217 7.90477 24.8652 7.1663C23.5467 6.71414 22.1517 6.52769 20.7608 6.61771C20.5072 6.63478 20.2464 6.66223 19.9984 6.71232C19.9104 6.72462 19.8006 6.71588 19.7153 6.73205C18.4319 6.97529 17.1858 7.38244 16.0518 8.0403C15.9327 8.10937 15.8123 8.1809 15.69 8.248C15.646 8.20755 15.6583 8.22753 15.6403 8.17309L15.6449 8.15289C15.7209 8.08915 15.8325 8.0208 15.9162 7.96411C17.3639 6.98358 19.074 6.31426 20.8142 6.09047C20.9889 6.06926 21.1638 6.04977 21.3389 6.03203C21.4303 6.0227 21.5275 6.02211 21.6159 6Z" fill="#17B26A"/>
<path d="M32.9355 15.4781C32.9496 15.6147 32.9409 15.8248 32.9369 15.967C32.9311 15.9715 32.918 15.9747 32.9101 15.9774C32.8804 15.9186 32.8934 15.6476 32.8971 15.5689C32.9003 15.5062 32.8974 15.5099 32.9355 15.4781Z" fill="#17B26A"/>
<path d="M21.5538 6.03533C21.6549 6.03207 21.9231 6.0263 22.0129 6.04192C21.9511 6.05918 21.594 6.0739 21.5538 6.03533Z" fill="#17B26A"/>
<path d="M14.8315 8.78989C14.9059 8.7435 14.974 8.67403 15.0429 8.61929C15.2128 8.48425 15.453 8.27021 15.6403 8.17309C15.6583 8.22753 15.646 8.20755 15.69 8.248C15.5176 8.3649 14.998 8.69875 14.8733 8.82771L14.8315 8.78989Z" fill="#17B26A"/>
<path d="M29.6718 22.8309C29.6216 22.8516 29.4657 23.0405 29.4033 23.0547L29.4012 23.0311C29.411 23.0224 29.6316 22.7568 29.6341 22.7523L29.6718 22.8309Z" fill="#17B26A"/>
<path d="M14.8733 8.82771C14.7709 8.89479 14.7636 8.92684 14.6376 8.99202L14.6269 8.98581C14.6637 8.94037 14.7812 8.8028 14.8315 8.78989L14.8733 8.82771Z" fill="#17B26A"/>
</g>
<defs>
<filter id="filter0_dd_1083_50505" x="0" y="0" width="38" height="38" filterUnits="userSpaceOnUse" color-interpolation-filters="sRGB">
<feFlood flood-opacity="0" result="BackgroundImageFix"/>
<feColorMatrix in="SourceAlpha" type="matrix" values="0 0 0 0 0 0 0 0 0 0 0 0 0 0 0 0 0 0 127 0" result="hardAlpha"/>
<feOffset dy="1"/>
<feGaussianBlur stdDeviation="1"/>
<feColorMatrix type="matrix" values="0 0 0 0 0.0627451 0 0 0 0 0.0941176 0 0 0 0 0.156863 0 0 0 0.06 0"/>
<feBlend mode="normal" in2="BackgroundImageFix" result="effect1_dropShadow_1083_50505"/>
<feColorMatrix in="SourceAlpha" type="matrix" values="0 0 0 0 0 0 0 0 0 0 0 0 0 0 0 0 0 0 127 0" result="hardAlpha"/>
<feOffset dy="1"/>
<feGaussianBlur stdDeviation="1.5"/>
<feColorMatrix type="matrix" values="0 0 0 0 0.0627451 0 0 0 0 0.0941176 0 0 0 0 0.156863 0 0 0 0.1 0"/>
<feBlend mode="normal" in2="effect1_dropShadow_1083_50505" result="effect2_dropShadow_1083_50505"/>
<feBlend mode="normal" in="SourceGraphic" in2="effect2_dropShadow_1083_50505" result="shape"/>
</filter>
</defs>
</svg>
