<svg width="101" height="32" viewBox="0 0 101 32" fill="none" xmlns="http://www.w3.org/2000/svg">
<path fill-rule="evenodd" clip-rule="evenodd" d="M16.0264 3C16.1328 3.903 16.3624 4.74343 16.9894 5.37172C17.7695 6.17071 18.6433 6.5056 17.364 7.32934C16.3827 7.9612 19.4492 9.68906 19.9424 10.0562C20.3683 10.3683 20.7694 10.714 21.1417 11.0904C23.2588 13.2339 22.8229 15.3338 22.8225 18.1031L22.8212 23.973C20.0323 24.4435 18.5061 25.0055 16.0005 26.1638C15.5327 25.9698 15.0117 25.654 14.4868 25.439C12.8882 24.7838 10.9279 24.192 9.21881 23.9953C9.17709 22.6225 9.20916 21.0989 9.20955 19.7149L9.21089 17.1183L8.32667 17.067C8.36427 20.4165 8.33232 23.8357 8.33087 27.1906L6.1295 27.1888C6.06529 23.1171 6.1255 18.8786 6.12835 14.7896C7.15379 14.7811 8.17928 14.8119 9.20239 14.8824C9.28843 13.2393 9.80642 12.1465 10.9833 10.9949C11.3372 10.6533 11.7132 10.3358 12.1089 10.0454C12.8807 9.47353 13.7648 8.95396 14.5224 8.2998C15.9439 7.07224 12.666 7.22168 14.732 5.66706C15.6533 4.97382 15.79 4.06539 16.0264 3ZM11.4057 22.1136C12.6859 22.4388 13.6647 22.718 14.9136 23.1988L14.9115 18.9112C13.7171 18.1633 12.7952 17.7837 11.4099 17.4581L11.4057 22.1136ZM20.5685 17.4751C19.159 17.8056 18.3355 18.145 17.1177 18.913C17.1146 19.4156 17.0614 23.0342 17.1682 23.193C18.3766 22.7559 19.3602 22.4307 20.6242 22.1279C20.623 21.7069 20.6559 17.5766 20.5685 17.4751ZM16.0085 9.95917C14.1892 11.4958 11.4443 12.4525 11.4023 15.1603C12.9152 15.4992 14.2519 15.9042 15.5891 16.7097C15.7144 16.7855 15.8999 16.9028 16.0256 16.9617C17.4921 16.0589 18.9304 15.4733 20.6296 15.1665C20.6149 14.5242 20.5507 13.9694 20.1819 13.4061C19.2527 11.9864 17.6238 11.3027 16.375 10.2348C16.2999 10.1707 16.0853 9.98432 16.0085 9.95917Z" fill="url(#paint0_linear_12631_1564)"/>
<path d="M23.6996 14.7918C24.4331 14.7843 25.1666 14.7865 25.9 14.7985C25.8463 18.7979 25.8944 22.9111 25.8938 26.9198C22.3651 26.8792 18.9115 27.9559 16.0129 30C14.3456 28.7984 13.343 28.3471 11.3903 27.707C10.6684 27.5063 9.95153 27.3141 9.21225 27.1919C9.20777 26.4372 9.20891 25.6821 9.21563 24.9275C11.6315 25.2665 13.8937 26.1027 16.0163 27.3012C18.503 25.9225 20.8558 25.1046 23.7033 24.8089C23.6605 21.5034 23.6996 18.1044 23.6996 14.7918Z" fill="url(#paint1_linear_12631_1564)"/>
<path d="M34.72 13V5.55H36.02L38.81 9.34H38.19L40.92 5.55H42.22V13H40.85V7.1L41.38 7.23L38.55 11H38.39L35.63 7.23L36.08 7.1V13H34.72ZM45.1858 13.12C44.8058 13.12 44.4758 13.0567 44.1958 12.93C43.9158 12.8033 43.6991 12.6233 43.5458 12.39C43.3924 12.15 43.3158 11.8733 43.3158 11.56C43.3158 11.26 43.3824 10.9933 43.5158 10.76C43.6491 10.52 43.8558 10.32 44.1358 10.16C44.4158 10 44.7691 9.88667 45.1958 9.82L46.9758 9.53V10.53L45.4458 10.79C45.1858 10.8367 44.9924 10.92 44.8658 11.04C44.7391 11.16 44.6758 11.3167 44.6758 11.51C44.6758 11.6967 44.7458 11.8467 44.8858 11.96C45.0324 12.0667 45.2124 12.12 45.4258 12.12C45.6991 12.12 45.9391 12.0633 46.1458 11.95C46.3591 11.83 46.5224 11.6667 46.6358 11.46C46.7558 11.2533 46.8158 11.0267 46.8158 10.78V9.38C46.8158 9.14667 46.7224 8.95333 46.5358 8.8C46.3558 8.64 46.1158 8.56 45.8158 8.56C45.5358 8.56 45.2858 8.63667 45.0658 8.79C44.8524 8.93667 44.6958 9.13333 44.5958 9.38L43.5258 8.86C43.6324 8.57333 43.7991 8.32667 44.0258 8.12C44.2591 7.90667 44.5324 7.74 44.8458 7.62C45.1591 7.5 45.4991 7.44 45.8658 7.44C46.3124 7.44 46.7058 7.52333 47.0458 7.69C47.3858 7.85 47.6491 8.07667 47.8358 8.37C48.0291 8.65667 48.1258 8.99333 48.1258 9.38V13H46.8858V12.07L47.1658 12.05C47.0258 12.2833 46.8591 12.48 46.6658 12.64C46.4724 12.7933 46.2524 12.9133 46.0058 13C45.7591 13.08 45.4858 13.12 45.1858 13.12ZM51.4066 13.12C50.8266 13.12 50.3199 12.9833 49.8866 12.71C49.4599 12.43 49.1666 12.0533 49.0066 11.58L49.9866 11.11C50.1266 11.4167 50.3199 11.6567 50.5666 11.83C50.8199 12.0033 51.0999 12.09 51.4066 12.09C51.6466 12.09 51.8366 12.0367 51.9766 11.93C52.1166 11.8233 52.1866 11.6833 52.1866 11.51C52.1866 11.4033 52.1566 11.3167 52.0966 11.25C52.0432 11.1767 51.9666 11.1167 51.8666 11.07C51.7732 11.0167 51.6699 10.9733 51.5566 10.94L50.6666 10.69C50.2066 10.5567 49.8566 10.3533 49.6166 10.08C49.3832 9.80667 49.2666 9.48333 49.2666 9.11C49.2666 8.77667 49.3499 8.48667 49.5166 8.24C49.6899 7.98667 49.9266 7.79 50.2266 7.65C50.5332 7.51 50.8832 7.44 51.2766 7.44C51.7899 7.44 52.2432 7.56333 52.6366 7.81C53.0299 8.05667 53.3099 8.40333 53.4766 8.85L52.4766 9.32C52.3832 9.07333 52.2266 8.87667 52.0066 8.73C51.7866 8.58333 51.5399 8.51 51.2666 8.51C51.0466 8.51 50.8732 8.56 50.7466 8.66C50.6199 8.76 50.5566 8.89 50.5566 9.05C50.5566 9.15 50.5832 9.23667 50.6366 9.31C50.6899 9.38333 50.7632 9.44333 50.8566 9.49C50.9566 9.53667 51.0699 9.58 51.1966 9.62L52.0666 9.88C52.5132 10.0133 52.8566 10.2133 53.0966 10.48C53.3432 10.7467 53.4666 11.0733 53.4666 11.46C53.4666 11.7867 53.3799 12.0767 53.2066 12.33C53.0332 12.5767 52.7932 12.77 52.4866 12.91C52.1799 13.05 51.8199 13.12 51.4066 13.12ZM53.7233 15.21C53.6366 15.21 53.5466 15.2067 53.4533 15.2C53.3599 15.1933 53.2833 15.1833 53.2233 15.17V14.03C53.3433 14.05 53.4633 14.06 53.5833 14.06C53.8633 14.06 54.0799 13.9933 54.2333 13.86C54.3933 13.7333 54.4733 13.5367 54.4733 13.27V7.56H55.7833V13.27C55.7833 13.6833 55.6999 14.0333 55.5333 14.32C55.3666 14.6133 55.1266 14.8333 54.8133 14.98C54.5066 15.1333 54.1433 15.21 53.7233 15.21ZM54.4733 6.95V5.55H55.7833V6.95H54.4733ZM56.9928 13V7.56H58.3028V13H56.9928ZM56.9928 6.95V5.55H58.3028V6.95H56.9928ZM62.0423 13.12C61.5157 13.12 61.0457 12.9967 60.6323 12.75C60.219 12.4967 59.8923 12.1533 59.6523 11.72C59.4123 11.2867 59.2923 10.8067 59.2923 10.28C59.2923 9.74667 59.4123 9.26667 59.6523 8.84C59.8923 8.41333 60.219 8.07333 60.6323 7.82C61.0523 7.56667 61.519 7.44 62.0323 7.44C62.4457 7.44 62.8123 7.52333 63.1323 7.69C63.459 7.85 63.7157 8.07667 63.9023 8.37L63.7023 8.64V5.43H65.0123V13H63.7723V11.95L63.9123 12.21C63.7257 12.5033 63.4657 12.73 63.1323 12.89C62.799 13.0433 62.4357 13.12 62.0423 13.12ZM62.1823 11.92C62.4823 11.92 62.7457 11.85 62.9723 11.71C63.199 11.57 63.3757 11.3767 63.5023 11.13C63.6357 10.8833 63.7023 10.6 63.7023 10.28C63.7023 9.96667 63.6357 9.68667 63.5023 9.44C63.3757 9.18667 63.199 8.99 62.9723 8.85C62.7457 8.71 62.4823 8.64 62.1823 8.64C61.889 8.64 61.6257 8.71333 61.3923 8.86C61.159 9 60.9757 9.19333 60.8423 9.44C60.7157 9.68 60.6523 9.96 60.6523 10.28C60.6523 10.6 60.7157 10.8833 60.8423 11.13C60.9757 11.3767 61.159 11.57 61.3923 11.71C61.6257 11.85 61.889 11.92 62.1823 11.92Z" fill="#079455"/>
<path d="M34.924 27V18.06H38.692C39.252 18.06 39.736 18.16 40.144 18.36C40.552 18.552 40.864 18.832 41.08 19.2C41.296 19.56 41.404 19.988 41.404 20.484C41.404 20.916 41.292 21.312 41.068 21.672C40.852 22.024 40.512 22.304 40.048 22.512V21.912C40.456 22.072 40.788 22.276 41.044 22.524C41.3 22.764 41.484 23.036 41.596 23.34C41.716 23.644 41.776 23.964 41.776 24.3C41.776 25.14 41.5 25.8 40.948 26.28C40.404 26.76 39.656 27 38.704 27H34.924ZM36.34 25.74H38.812C39.284 25.74 39.66 25.612 39.94 25.356C40.22 25.092 40.36 24.744 40.36 24.312C40.36 23.872 40.22 23.524 39.94 23.268C39.66 23.004 39.284 22.872 38.812 22.872H36.34V25.74ZM36.34 21.624H38.728C39.112 21.624 39.42 21.516 39.652 21.3C39.884 21.076 40 20.784 40 20.424C40 20.064 39.884 19.784 39.652 19.584C39.42 19.384 39.112 19.284 38.728 19.284H36.34V21.624ZM45.0446 27.144C44.6046 27.144 44.2166 27.068 43.8806 26.916C43.5526 26.756 43.2966 26.54 43.1126 26.268C42.9286 25.988 42.8366 25.66 42.8366 25.284C42.8366 24.932 42.9126 24.616 43.0646 24.336C43.2246 24.056 43.4686 23.82 43.7966 23.628C44.1246 23.436 44.5366 23.3 45.0326 23.22L47.2886 22.848V23.916L45.2966 24.264C44.9366 24.328 44.6726 24.444 44.5046 24.612C44.3366 24.772 44.2526 24.98 44.2526 25.236C44.2526 25.484 44.3446 25.688 44.5286 25.848C44.7206 26 44.9646 26.076 45.2606 26.076C45.6286 26.076 45.9486 25.996 46.2206 25.836C46.5006 25.676 46.7166 25.464 46.8686 25.2C47.0206 24.928 47.0966 24.628 47.0966 24.3V22.632C47.0966 22.312 46.9766 22.052 46.7366 21.852C46.5046 21.644 46.1926 21.54 45.8006 21.54C45.4406 21.54 45.1246 21.636 44.8526 21.828C44.5886 22.012 44.3926 22.252 44.2646 22.548L43.1366 21.984C43.2566 21.664 43.4526 21.384 43.7246 21.144C43.9966 20.896 44.3126 20.704 44.6726 20.568C45.0406 20.432 45.4286 20.364 45.8366 20.364C46.3486 20.364 46.8006 20.46 47.1926 20.652C47.5926 20.844 47.9006 21.112 48.1166 21.456C48.3406 21.792 48.4526 22.184 48.4526 22.632V27H47.1566V25.824L47.4326 25.86C47.2806 26.124 47.0846 26.352 46.8446 26.544C46.6126 26.736 46.3446 26.884 46.0406 26.988C45.7446 27.092 45.4126 27.144 45.0446 27.144ZM50.0381 27V20.508H51.3941V27H50.0381ZM50.0381 19.62V18.06H51.3941V19.62H50.0381ZM55.7875 27.072C55.1075 27.072 54.5795 26.88 54.2035 26.496C53.8275 26.112 53.6395 25.572 53.6395 24.876V21.732H52.4995V20.508H52.6795C52.9835 20.508 53.2195 20.42 53.3875 20.244C53.5555 20.068 53.6395 19.828 53.6395 19.524V19.02H54.9955V20.508H56.4715V21.732H54.9955V24.816C54.9955 25.04 55.0315 25.232 55.1035 25.392C55.1755 25.544 55.2915 25.664 55.4515 25.752C55.6115 25.832 55.8195 25.872 56.0755 25.872C56.1395 25.872 56.2115 25.868 56.2915 25.86C56.3715 25.852 56.4475 25.844 56.5195 25.836V27C56.4075 27.016 56.2835 27.032 56.1475 27.048C56.0115 27.064 55.8915 27.072 55.7875 27.072ZM60.1588 27.144C59.6708 27.144 59.2428 27.036 58.8748 26.82C58.5068 26.596 58.2188 26.288 58.0108 25.896C57.8108 25.496 57.7108 25.036 57.7108 24.516V20.508H59.0668V24.396C59.0668 24.692 59.1268 24.952 59.2468 25.176C59.3668 25.4 59.5348 25.576 59.7508 25.704C59.9668 25.824 60.2148 25.884 60.4948 25.884C60.7828 25.884 61.0348 25.82 61.2508 25.692C61.4668 25.564 61.6348 25.384 61.7548 25.152C61.8828 24.92 61.9468 24.648 61.9468 24.336V20.508H63.2908V27H62.0068V25.728L62.1508 25.896C61.9988 26.296 61.7468 26.604 61.3948 26.82C61.0428 27.036 60.6308 27.144 60.1588 27.144ZM64.874 27V20.508H66.17V21.816L66.05 21.624C66.194 21.2 66.426 20.896 66.746 20.712C67.066 20.52 67.45 20.424 67.898 20.424H68.294V21.66H67.73C67.282 21.66 66.918 21.8 66.638 22.08C66.366 22.352 66.23 22.744 66.23 23.256V27H64.874ZM69.2217 27V20.508H70.5177V21.816L70.3977 21.624C70.5417 21.2 70.7737 20.896 71.0937 20.712C71.4137 20.52 71.7977 20.424 72.2457 20.424H72.6417V21.66H72.0777C71.6297 21.66 71.2657 21.8 70.9857 22.08C70.7137 22.352 70.5777 22.744 70.5777 23.256V27H69.2217ZM75.5133 27.144C75.0733 27.144 74.6853 27.068 74.3493 26.916C74.0213 26.756 73.7653 26.54 73.5813 26.268C73.3973 25.988 73.3053 25.66 73.3053 25.284C73.3053 24.932 73.3813 24.616 73.5333 24.336C73.6933 24.056 73.9373 23.82 74.2653 23.628C74.5933 23.436 75.0053 23.3 75.5013 23.22L77.7573 22.848V23.916L75.7653 24.264C75.4053 24.328 75.1413 24.444 74.9733 24.612C74.8053 24.772 74.7213 24.98 74.7213 25.236C74.7213 25.484 74.8133 25.688 74.9973 25.848C75.1893 26 75.4333 26.076 75.7293 26.076C76.0973 26.076 76.4173 25.996 76.6893 25.836C76.9693 25.676 77.1853 25.464 77.3373 25.2C77.4893 24.928 77.5653 24.628 77.5653 24.3V22.632C77.5653 22.312 77.4453 22.052 77.2053 21.852C76.9733 21.644 76.6613 21.54 76.2693 21.54C75.9093 21.54 75.5933 21.636 75.3213 21.828C75.0573 22.012 74.8613 22.252 74.7333 22.548L73.6053 21.984C73.7253 21.664 73.9213 21.384 74.1933 21.144C74.4653 20.896 74.7813 20.704 75.1413 20.568C75.5093 20.432 75.8973 20.364 76.3053 20.364C76.8173 20.364 77.2693 20.46 77.6613 20.652C78.0613 20.844 78.3693 21.112 78.5853 21.456C78.8093 21.792 78.9213 22.184 78.9213 22.632V27H77.6253V25.824L77.9013 25.86C77.7493 26.124 77.5533 26.352 77.3133 26.544C77.0813 26.736 76.8133 26.884 76.5093 26.988C76.2133 27.092 75.8813 27.144 75.5133 27.144ZM80.5068 27V17.916H81.8628V21.78L81.6468 21.612C81.8068 21.204 82.0628 20.896 82.4148 20.688C82.7668 20.472 83.1748 20.364 83.6388 20.364C84.1188 20.364 84.5428 20.468 84.9108 20.676C85.2788 20.884 85.5668 21.172 85.7748 21.54C85.9828 21.908 86.0868 22.328 86.0868 22.8V27H84.7428V23.172C84.7428 22.844 84.6788 22.568 84.5508 22.344C84.4308 22.112 84.2628 21.936 84.0468 21.816C83.8308 21.688 83.5828 21.624 83.3028 21.624C83.0308 21.624 82.7828 21.688 82.5588 21.816C82.3428 21.936 82.1708 22.112 82.0428 22.344C81.9228 22.576 81.8628 22.852 81.8628 23.172V27H80.5068ZM87.5381 27V20.508H88.8941V27H87.5381ZM87.5381 19.62V18.06H88.8941V19.62H87.5381ZM90.4795 27V20.508H91.7755V21.912L91.6075 21.696C91.7435 21.256 91.9915 20.924 92.3515 20.7C92.7115 20.476 93.1235 20.364 93.5875 20.364C94.1075 20.364 94.5675 20.504 94.9675 20.784C95.3755 21.056 95.6475 21.42 95.7835 21.876L95.3995 21.912C95.5915 21.392 95.8835 21.004 96.2755 20.748C96.6755 20.492 97.1315 20.364 97.6435 20.364C98.0915 20.364 98.4955 20.468 98.8555 20.676C99.2235 20.884 99.5155 21.172 99.7315 21.54C99.9475 21.908 100.056 22.328 100.056 22.8V27H98.6995V23.172C98.6995 22.844 98.6395 22.568 98.5195 22.344C98.4075 22.112 98.2475 21.936 98.0395 21.816C97.8395 21.688 97.6035 21.624 97.3315 21.624C97.0595 21.624 96.8195 21.688 96.6115 21.816C96.4035 21.936 96.2395 22.112 96.1195 22.344C95.9995 22.576 95.9395 22.852 95.9395 23.172V27H94.5955V23.172C94.5955 22.844 94.5355 22.568 94.4155 22.344C94.3035 22.112 94.1435 21.936 93.9355 21.816C93.7355 21.688 93.4955 21.624 93.2155 21.624C92.9435 21.624 92.7035 21.688 92.4955 21.816C92.2875 21.936 92.1235 22.112 92.0035 22.344C91.8915 22.576 91.8355 22.852 91.8355 23.172V27H90.4795Z" fill="#079455"/>
<defs>
<linearGradient id="paint0_linear_12631_1564" x1="6.10001" y1="3" x2="25.9" y2="3" gradientUnits="userSpaceOnUse">
<stop stop-color="#079455"/>
<stop offset="1" stop-color="#17B26A"/>
</linearGradient>
<linearGradient id="paint1_linear_12631_1564" x1="6.10001" y1="3" x2="25.9" y2="3" gradientUnits="userSpaceOnUse">
<stop stop-color="#079455"/>
<stop offset="1" stop-color="#17B26A"/>
</linearGradient>
</defs>
</svg>
