<svg width="38" height="38" viewBox="0 0 38 38" fill="none" xmlns="http://www.w3.org/2000/svg">
<g filter="url(#filter0_dd_12631_1572)">
<path fill-rule="evenodd" clip-rule="evenodd" d="M19.0264 5C19.1328 5.903 19.3624 6.74343 19.9894 7.37172C20.7695 8.17071 21.6433 8.5056 20.364 9.32934C19.3827 9.9612 22.4492 11.6891 22.9424 12.0562C23.3683 12.3683 23.7694 12.714 24.1417 13.0904C26.2588 15.2339 25.8229 17.3338 25.8225 20.1031L25.8212 25.973C23.0323 26.4435 21.5061 27.0055 19.0005 28.1638C18.5327 27.9698 18.0117 27.654 17.4868 27.439C15.8882 26.7838 13.9279 26.192 12.2188 25.9953C12.1771 24.6225 12.2092 23.0989 12.2096 21.7149L12.2109 19.1183L11.3267 19.067C11.3643 22.4165 11.3323 25.8357 11.3309 29.1906L9.1295 29.1888C9.06529 25.1171 9.1255 20.8786 9.12835 16.7896C10.1538 16.7811 11.1793 16.8119 12.2024 16.8824C12.2884 15.2393 12.8064 14.1465 13.9833 12.9949C14.3372 12.6533 14.7132 12.3358 15.1089 12.0454C15.8807 11.4735 16.7648 10.954 17.5224 10.2998C18.9439 9.07224 15.666 9.22168 17.732 7.66706C18.6533 6.97382 18.79 6.06539 19.0264 5ZM14.4057 24.1136C15.6859 24.4388 16.6647 24.718 17.9136 25.1988L17.9115 20.9112C16.7171 20.1633 15.7952 19.7837 14.4099 19.4581L14.4057 24.1136ZM23.5685 19.4751C22.159 19.8056 21.3355 20.145 20.1177 20.913C20.1146 21.4156 20.0614 25.0342 20.1682 25.193C21.3766 24.7559 22.3602 24.4307 23.6242 24.1279C23.623 23.7069 23.6559 19.5766 23.5685 19.4751ZM19.0085 11.9592C17.1892 13.4958 14.4443 14.4525 14.4023 17.1603C15.9152 17.4992 17.2519 17.9042 18.5891 18.7097C18.7144 18.7855 18.8999 18.9028 19.0256 18.9617C20.4921 18.0589 21.9304 17.4733 23.6296 17.1665C23.6149 16.5242 23.5507 15.9694 23.1819 15.4061C22.2527 13.9864 20.6238 13.3027 19.375 12.2348C19.2999 12.1707 19.0853 11.9843 19.0085 11.9592Z" fill="#1A3D2B"/>
<path d="M26.6996 16.7918C27.4331 16.7843 28.1666 16.7865 28.9 16.7985C28.8463 20.7979 28.8944 24.9111 28.8938 28.9198C25.3651 28.8792 21.9115 29.9559 19.0129 32C17.3456 30.7984 16.343 30.3471 14.3903 29.707C13.6684 29.5063 12.9515 29.3141 12.2123 29.1919C12.2078 28.4372 12.2089 27.6821 12.2156 26.9275C14.6315 27.2665 16.8937 28.1027 19.0163 29.3012C21.503 27.9225 23.8558 27.1046 26.7033 26.8089C26.6605 23.5034 26.6996 20.1044 26.6996 16.7918Z" fill="#1A3D2B"/>
</g>
<defs>
<filter id="filter0_dd_12631_1572" x="0" y="0" width="38" height="38" filterUnits="userSpaceOnUse" color-interpolation-filters="sRGB">
<feFlood flood-opacity="0" result="BackgroundImageFix"/>
<feColorMatrix in="SourceAlpha" type="matrix" values="0 0 0 0 0 0 0 0 0 0 0 0 0 0 0 0 0 0 127 0" result="hardAlpha"/>
<feOffset dy="1"/>
<feGaussianBlur stdDeviation="1"/>
<feColorMatrix type="matrix" values="0 0 0 0 0.0627451 0 0 0 0 0.0941176 0 0 0 0 0.156863 0 0 0 0.06 0"/>
<feBlend mode="normal" in2="BackgroundImageFix" result="effect1_dropShadow_12631_1572"/>
<feColorMatrix in="SourceAlpha" type="matrix" values="0 0 0 0 0 0 0 0 0 0 0 0 0 0 0 0 0 0 127 0" result="hardAlpha"/>
<feOffset dy="1"/>
<feGaussianBlur stdDeviation="1.5"/>
<feColorMatrix type="matrix" values="0 0 0 0 0.0627451 0 0 0 0 0.0941176 0 0 0 0 0.156863 0 0 0 0.1 0"/>
<feBlend mode="normal" in2="effect1_dropShadow_12631_1572" result="effect2_dropShadow_12631_1572"/>
<feBlend mode="normal" in="SourceGraphic" in2="effect2_dropShadow_12631_1572" result="shape"/>
</filter>
</defs>
</svg>
