<svg width="107" height="38" viewBox="0 0 107 38" fill="none" xmlns="http://www.w3.org/2000/svg">
<g filter="url(#filter0_dd_12631_1563)">
<path fill-rule="evenodd" clip-rule="evenodd" d="M19.0264 5C19.1328 5.903 19.3624 6.74343 19.9894 7.37172C20.7695 8.17071 21.6433 8.5056 20.364 9.32934C19.3827 9.9612 22.4492 11.6891 22.9424 12.0562C23.3683 12.3683 23.7694 12.714 24.1417 13.0904C26.2588 15.2339 25.8229 17.3338 25.8225 20.1031L25.8212 25.973C23.0323 26.4435 21.5061 27.0055 19.0005 28.1638C18.5327 27.9698 18.0117 27.654 17.4868 27.439C15.8882 26.7838 13.9279 26.192 12.2188 25.9953C12.1771 24.6225 12.2092 23.0989 12.2096 21.7149L12.2109 19.1183L11.3267 19.067C11.3643 22.4165 11.3323 25.8357 11.3309 29.1906L9.1295 29.1888C9.06529 25.1171 9.1255 20.8786 9.12835 16.7896C10.1538 16.7811 11.1793 16.8119 12.2024 16.8824C12.2884 15.2393 12.8064 14.1465 13.9833 12.9949C14.3372 12.6533 14.7132 12.3358 15.1089 12.0454C15.8807 11.4735 16.7648 10.954 17.5224 10.2998C18.9439 9.07224 15.666 9.22168 17.732 7.66706C18.6533 6.97382 18.79 6.06539 19.0264 5ZM14.4057 24.1136C15.6859 24.4388 16.6647 24.718 17.9136 25.1988L17.9115 20.9112C16.7171 20.1633 15.7952 19.7837 14.4099 19.4581L14.4057 24.1136ZM23.5685 19.4751C22.159 19.8056 21.3355 20.145 20.1177 20.913C20.1146 21.4156 20.0614 25.0342 20.1682 25.193C21.3766 24.7559 22.3602 24.4307 23.6242 24.1279C23.623 23.7069 23.6559 19.5766 23.5685 19.4751ZM19.0085 11.9592C17.1892 13.4958 14.4443 14.4525 14.4023 17.1603C15.9152 17.4992 17.2519 17.9042 18.5891 18.7097C18.7144 18.7855 18.8999 18.9028 19.0256 18.9617C20.4921 18.0589 21.9304 17.4733 23.6296 17.1665C23.6149 16.5242 23.5507 15.9694 23.1819 15.4061C22.2527 13.9864 20.6238 13.3027 19.375 12.2348C19.2999 12.1707 19.0853 11.9843 19.0085 11.9592Z" fill="#1A3D2B"/>
<path d="M26.6996 16.7918C27.4331 16.7843 28.1666 16.7865 28.9 16.7985C28.8463 20.7979 28.8944 24.9111 28.8938 28.9198C25.3651 28.8792 21.9115 29.9559 19.0129 32C17.3456 30.7984 16.343 30.3471 14.3903 29.707C13.6684 29.5063 12.9515 29.3141 12.2123 29.1919C12.2078 28.4372 12.2089 27.6821 12.2156 26.9275C14.6315 27.2665 16.8937 28.1027 19.0163 29.3012C21.503 27.9225 23.8558 27.1046 26.7033 26.8089C26.6605 23.5034 26.6996 20.1044 26.6996 16.7918Z" fill="#1A3D2B"/>
</g>
<path d="M38.715 18C38.475 18 38.4 17.895 38.415 17.805C38.43 17.73 38.535 17.64 38.715 17.61C39.57 17.475 40.23 16.305 40.755 14.355C41.07 13.17 42.03 9.375 42.225 8.37C42.39 7.62 42.195 7.245 41.52 7.125C41.31 7.08 41.22 6.99 41.235 6.9C41.25 6.81 41.37 6.75 41.595 6.75H44.61C44.79 6.75 44.925 6.84 44.925 7.08L45.375 13.2C45.405 13.545 45.495 13.725 45.6 13.725C45.75 13.725 45.9 13.5 46.065 13.2L49.455 7.02C49.56 6.825 49.725 6.75 49.89 6.75H52.8C53.025 6.75 53.115 6.84 53.1 6.93C53.085 7.005 52.995 7.08 52.755 7.125C52.08 7.245 51.78 7.545 51.51 8.4C51.225 9.315 50.82 10.95 50.43 12.51C49.95 14.415 49.65 15.705 49.515 16.395C49.365 17.13 49.605 17.505 50.34 17.625C50.535 17.67 50.625 17.76 50.61 17.85C50.595 17.94 50.475 18.015 50.25 18C49.68 17.97 49.29 17.895 48.03 17.895C46.89 17.895 46.38 18 45.975 18C45.735 18 45.66 17.895 45.675 17.805C45.69 17.73 45.795 17.64 45.975 17.61C46.725 17.505 47.16 17.115 47.385 16.365C47.58 15.69 47.925 14.4 48.405 12.495C48.735 11.19 49.02 9.81 49.215 8.97C49.29 8.67 49.275 8.55 49.2 8.55C49.125 8.55 49.02 8.715 48.855 9.015L44.1 18.03C44.025 18.165 43.95 18.225 43.875 18.225C43.8 18.225 43.755 18.165 43.74 18.03L43.02 8.895C42.99 8.595 42.945 8.475 42.855 8.49C42.78 8.505 42.735 8.64 42.675 8.865C42 11.565 41.655 12.675 41.265 14.385C40.83 16.305 40.98 17.475 41.895 17.64C42.105 17.685 42.165 17.76 42.15 17.85C42.135 17.94 42.015 18.015 41.805 18C41.235 17.955 40.635 17.865 40.2 17.865C39.795 17.865 39.24 18 38.715 18ZM52.6441 18.225C51.7741 18.225 51.2791 17.43 51.6391 16.08C52.3141 13.545 54.8191 10.785 57.2341 10.665C57.6691 10.65 58.0291 10.575 58.4341 10.35C58.7641 10.185 59.0191 9.945 59.3641 9.945C59.8741 9.945 60.0541 10.29 59.8591 10.98C59.5591 12.06 59.1991 12.96 58.2091 15.675C57.9391 16.455 58.0141 16.755 58.3441 16.755C58.6891 16.755 59.1991 16.26 59.5141 15.885C59.6491 15.735 59.7091 15.69 59.7841 15.69C59.9191 15.69 59.9641 15.825 59.8441 16.02C59.2591 16.935 57.9691 18.225 56.9191 18.225C56.1991 18.225 55.8691 17.685 56.1991 16.605C56.3191 16.14 56.5591 15.705 56.6791 15.42C56.7541 15.24 56.7241 15.135 56.6191 15.135C56.5291 15.135 56.4091 15.315 56.2141 15.57C55.7941 16.125 54.2491 18.225 52.6441 18.225ZM53.9491 16.74C54.9541 16.74 56.9041 14.475 57.6091 12.54C57.9841 11.505 57.6391 11.145 57.1591 11.145C55.9441 11.145 54.4291 13.02 53.6641 15.345C53.3191 16.425 53.5441 16.74 53.9491 16.74ZM61.84 18.225C60.505 18.225 59.83 17.43 59.95 16.875C60.04 16.455 60.52 16.065 60.925 16.065C61.24 16.065 61.42 16.35 61.615 16.71C61.855 17.115 62.11 17.595 62.665 17.595C63.13 17.595 63.475 17.34 63.61 16.755C63.79 16.035 63.31 15.27 62.77 14.49C62.185 13.665 61.78 13.035 62.02 12.165C62.305 11.13 63.76 10.05 64.99 10.05C66.175 10.05 66.865 10.875 66.715 11.46C66.595 11.91 66.19 12.195 65.83 12.195C65.515 12.195 65.35 11.97 65.215 11.61C65.08 11.28 64.78 10.68 64.255 10.68C63.865 10.68 63.52 10.92 63.415 11.34C63.25 12 63.715 12.6 64.285 13.395C64.87 14.205 65.47 14.895 65.14 16.05C64.87 17.01 63.34 18.225 61.84 18.225ZM64.6372 21.57C63.9472 21.57 63.4372 20.64 63.5272 20.13C63.5572 19.905 63.6622 19.785 63.9622 19.785C64.6822 19.785 65.3722 20.025 65.9122 19.935C66.2122 19.875 66.4822 19.695 66.6622 19.41C67.0072 18.855 67.1272 17.52 67.5772 15.945C67.8022 15.195 68.6722 12.495 68.8072 12.135C68.9722 11.7 68.8522 11.55 68.6572 11.55C68.4472 11.55 68.0122 11.82 67.5172 12.255C67.3522 12.39 67.2622 12.48 67.1422 12.48C66.9772 12.48 66.9622 12.3 67.0822 12.165C68.0572 11.1 69.4972 10.125 70.3522 10.125C71.0272 10.125 71.2372 10.515 70.7722 11.76C70.5322 12.435 69.3922 15.84 69.1072 16.53C68.6422 17.61 67.9072 18.735 67.1572 19.65C66.1522 20.88 65.3722 21.57 64.6372 21.57ZM70.5172 9.285C69.9322 9.285 69.5572 8.775 69.6922 8.205C69.8422 7.62 70.4572 7.14 71.0272 7.14C71.6122 7.14 72.0022 7.62 71.8522 8.205C71.7022 8.79 71.0872 9.285 70.5172 9.285ZM72.3104 18.225C71.4704 18.225 71.2154 17.565 71.7704 16.23C72.2354 15.12 72.8654 13.74 73.4954 12.195C73.6754 11.745 73.6004 11.55 73.3904 11.55C73.1654 11.55 72.7454 11.805 72.2354 12.255C72.0704 12.39 71.9954 12.48 71.8754 12.48C71.7104 12.48 71.6804 12.315 71.8154 12.165C72.7904 11.1 74.2754 10.125 75.0854 10.125C75.7754 10.125 76.0454 10.545 75.4454 11.865C74.3054 14.37 74.2004 14.55 73.7804 15.63C73.4804 16.395 73.6004 16.74 73.9304 16.74C74.3054 16.74 74.8604 16.155 75.2204 15.81C75.3404 15.69 75.4004 15.645 75.4904 15.645C75.6254 15.645 75.6554 15.795 75.5204 15.975C74.9204 16.785 73.5404 18.225 72.3104 18.225ZM75.4454 9.285C74.8604 9.285 74.4854 8.775 74.6204 8.205C74.7704 7.62 75.3854 7.14 75.9554 7.14C76.5404 7.14 76.9304 7.62 76.7804 8.205C76.6304 8.79 76.0154 9.285 75.4454 9.285ZM77.8549 18.225C76.7599 18.225 76.0999 17.175 76.5949 15.135C77.3899 11.82 79.6849 10.05 81.4549 10.05C81.8149 10.05 82.1149 10.17 82.3099 10.275C82.4299 10.335 82.5499 10.395 82.6699 10.395C82.8199 10.395 82.9849 10.245 83.1199 9.825C83.3899 9.03 83.6299 8.22 83.7949 7.575C83.9599 6.975 83.7349 6.705 83.2699 6.6C83.0749 6.555 82.9549 6.495 82.9849 6.375C82.9999 6.3 83.0899 6.225 83.3299 6.195C84.3949 6.09 85.0399 5.91 85.5049 5.715C85.8499 5.58 85.9099 5.55 86.0299 5.55C86.1649 5.55 86.2249 5.67 86.1649 5.85C85.0849 9.06 84.0349 12.705 83.1199 15.57C82.8349 16.425 82.8799 16.755 83.1949 16.74C83.5399 16.74 84.1249 16.17 84.3949 15.885C84.5299 15.735 84.5899 15.705 84.6649 15.705C84.7999 15.705 84.8299 15.84 84.6799 16.065C84.0199 17.025 82.8499 18.225 81.8299 18.225C81.0349 18.225 80.8549 17.55 81.2449 16.32C81.3949 15.765 81.6049 15.36 81.8299 14.865C81.9049 14.685 81.8749 14.595 81.7699 14.595C81.6499 14.595 81.5749 14.715 81.3649 15.06C79.9249 17.445 78.9499 18.225 77.8549 18.225ZM78.8149 16.995C79.4299 16.995 80.2399 16.14 81.0199 14.91C81.6349 13.95 82.1899 12.81 82.3249 11.835C82.4599 10.92 82.1449 10.5 81.5599 10.5C80.8399 10.5 79.4149 11.61 78.5449 14.895C78.1249 16.485 78.4399 16.995 78.8149 16.995Z" fill="#B8962E"/>
<path d="M38.868 31C38.676 31 38.616 30.916 38.628 30.844C38.64 30.784 38.724 30.712 38.868 30.7C39.6 30.628 39.936 30.352 40.14 29.68C40.284 29.188 40.548 28.168 40.944 26.608C41.268 25.288 41.664 23.668 41.724 23.332C41.856 22.648 41.664 22.36 41.028 22.3C40.86 22.288 40.776 22.204 40.788 22.132C40.8 22.06 40.92 22 41.088 22C41.556 22 41.916 22.096 42.444 22.096C42.924 22.096 43.416 22 43.968 22C45.48 22.012 46.176 22.972 45.828 24.088C45.456 25.288 44.484 25.9 43.704 26.116C43.512 26.176 43.488 26.26 43.644 26.284C44.7 26.428 45.528 27.268 45.168 28.636C44.748 30.244 43.56 31.012 42.012 31.012C41.412 31.012 40.92 30.916 40.308 30.916C39.78 30.916 39.348 31 38.868 31ZM42.54 26.02C43.536 26.008 44.616 25.492 44.964 24.112C45.228 23.044 44.652 22.372 43.74 22.36C43.188 22.348 42.792 22.708 42.624 23.32L42.036 25.492C41.928 25.912 42.072 26.02 42.54 26.02ZM42.084 30.628C43.128 30.628 43.956 29.824 44.244 28.672C44.58 27.316 44.124 26.452 42.348 26.416C42.024 26.404 41.784 26.548 41.7 26.872C41.496 27.748 41.136 29.152 41.052 29.596C40.896 30.352 41.304 30.628 42.084 30.628ZM46.7616 31.18C46.1136 31.18 45.7776 30.592 46.0176 29.668C46.5816 27.556 48.7056 25.264 50.7576 25.132C51.1296 25.108 51.3576 24.976 51.6936 24.748C51.8616 24.64 51.9936 24.556 52.1376 24.556C52.3776 24.556 52.4016 24.784 52.2936 25.108C52.1736 25.528 51.7896 26.524 50.6376 29.548C50.4336 30.1 50.5296 30.316 50.7936 30.316C51.1296 30.316 51.6936 29.752 52.0296 29.332C52.1016 29.236 52.1496 29.224 52.1856 29.224C52.2576 29.224 52.3056 29.296 52.2456 29.404C51.8856 30.016 50.8296 31.18 50.0976 31.18C49.6296 31.18 49.4496 30.712 49.8816 29.656C49.9776 29.392 50.1096 29.14 50.1936 28.936C50.2536 28.78 50.2296 28.708 50.1456 28.708C50.0976 28.708 50.0256 28.756 49.8816 28.924C49.4976 29.392 47.9136 31.18 46.7616 31.18ZM47.2896 30.304C48.4656 30.304 50.3976 28.372 51.0336 26.632C51.3336 25.804 51.1176 25.516 50.5776 25.516C49.1856 25.516 47.3256 27.712 46.9056 29.224C46.6656 30.1 46.9416 30.304 47.2896 30.304ZM53.6087 31.168C53.1407 31.168 53.0687 30.724 53.5007 29.68C53.9207 28.672 54.4727 27.52 55.0127 26.236C55.1927 25.804 55.1207 25.624 54.9527 25.624C54.7727 25.624 54.3167 25.912 53.8127 26.404C53.7167 26.5 53.6327 26.584 53.5607 26.584C53.4527 26.584 53.4287 26.464 53.5487 26.332C54.2687 25.48 55.4327 24.7 55.8767 24.7C56.2607 24.7 56.3807 24.928 55.9487 25.864C54.9167 28.096 54.7847 28.3 54.3407 29.452C54.1247 30.028 54.2207 30.292 54.4607 30.292C54.8327 30.292 55.4927 29.572 55.7687 29.296C55.8647 29.2 55.9247 29.152 55.9967 29.152C56.0687 29.152 56.0687 29.26 56.0207 29.332C55.6967 29.848 54.4847 31.168 53.6087 31.168ZM56.1887 23.944C55.8047 23.944 55.5527 23.596 55.6487 23.224C55.7447 22.852 56.1527 22.516 56.5367 22.516C56.9207 22.516 57.1727 22.852 57.0767 23.224C56.9807 23.596 56.5727 23.944 56.1887 23.944ZM57.5833 31.18C57.0553 31.18 56.8513 30.784 57.3313 29.5C57.5713 28.852 58.2793 26.824 58.5913 25.924C58.7473 25.456 58.6273 25.276 57.9433 25.324C57.7633 25.336 57.6793 25.24 57.7033 25.144C57.7153 25.084 57.7993 25.012 57.9313 24.988C58.8433 24.808 59.1553 24.424 59.6953 23.26C59.7793 23.092 59.8993 22.996 59.9713 22.996C60.0433 22.996 60.0913 23.08 60.0553 23.224L59.7433 24.316C59.6593 24.604 59.7673 24.82 59.9953 24.82H61.0393C61.1713 24.82 61.2073 24.856 61.1953 24.916C61.1713 25.036 60.8713 25.228 60.5473 25.228H60.0553C59.7793 25.228 59.5633 25.372 59.4553 25.696C59.3593 25.984 58.3873 28.66 58.1473 29.416C57.9433 30.052 58.0393 30.268 58.3393 30.268C58.7713 30.268 59.3473 29.692 59.7673 29.056C59.8273 28.96 59.8873 28.912 59.9473 28.912C60.0313 28.912 60.0913 28.984 59.9953 29.176C59.6713 29.824 58.5673 31.18 57.5833 31.18ZM61.688 31.18C61.208 31.18 60.968 30.712 61.352 29.74C61.808 28.588 62.36 27.448 62.828 26.236C63.008 25.78 62.948 25.624 62.78 25.624C62.6 25.624 62.132 25.924 61.64 26.404C61.544 26.5 61.46 26.584 61.388 26.584C61.268 26.584 61.244 26.44 61.364 26.296C62.06 25.48 63.248 24.7 63.692 24.7C64.076 24.7 64.22 24.928 63.788 25.864C63.176 27.232 62.672 28.288 62.252 29.38C61.988 30.064 62.156 30.22 62.372 30.22C62.876 30.22 63.86 29.212 65.072 27.796C65.792 26.944 65.876 26.68 66.524 25.324C66.752 24.832 66.884 24.7 67.064 24.7C67.388 24.7 67.508 24.952 67.208 25.72C66.392 27.796 66.272 28.12 65.792 29.452C65.588 30.028 65.66 30.292 65.9 30.292C66.284 30.292 66.896 29.572 67.196 29.248C67.244 29.2 67.328 29.152 67.388 29.152C67.46 29.152 67.496 29.236 67.436 29.332C67.124 29.836 65.972 31.168 65.168 31.168C64.652 31.168 64.544 30.808 64.88 29.848C65.144 29.116 65.444 28.492 65.732 27.856C65.792 27.712 65.732 27.64 65.66 27.64C65.564 27.64 65.444 27.736 65.132 28.108C64.28 29.152 62.66 31.18 61.688 31.18ZM68.8216 31.18C68.5336 31.18 68.4616 30.928 68.7976 30.1C70.0816 26.944 70.0936 26.32 70.1416 26.056C70.1896 25.72 70.1056 25.54 69.9376 25.54C69.5656 25.54 68.8216 26.5 68.5216 26.836C68.4736 26.884 68.4136 26.92 68.3776 26.92C68.2936 26.92 68.2936 26.812 68.3416 26.716C68.6176 26.224 69.7696 24.7 70.5856 24.7C70.9936 24.7 71.1976 25.144 70.8736 26.26C70.7296 26.764 70.5136 27.364 70.2736 27.976C70.2136 28.12 70.2376 28.192 70.3216 28.192C70.4176 28.192 70.5736 28.012 70.8376 27.592C71.5456 26.404 72.5056 24.604 73.4416 24.604C73.9096 24.604 74.1616 25.036 74.0176 25.564C73.8976 26.02 73.6336 26.236 73.4056 26.236C73.2496 26.236 73.1656 26.116 73.1176 25.864C73.0816 25.684 73.0576 25.54 72.8416 25.54C72.5536 25.54 72.2656 25.78 70.9456 27.904C70.3216 28.9 69.9256 29.572 69.4936 30.484C69.2296 31.036 69.0496 31.18 68.8216 31.18ZM74.3528 31.18C74.0648 31.18 73.9928 30.928 74.3288 30.1C75.6128 26.944 75.6248 26.32 75.6728 26.056C75.7208 25.72 75.6368 25.54 75.4688 25.54C75.0968 25.54 74.3528 26.5 74.0528 26.836C74.0048 26.884 73.9448 26.92 73.9088 26.92C73.8248 26.92 73.8248 26.812 73.8728 26.716C74.1488 26.224 75.3008 24.7 76.1168 24.7C76.5248 24.7 76.7288 25.144 76.4048 26.26C76.2608 26.764 76.0448 27.364 75.8048 27.976C75.7448 28.12 75.7688 28.192 75.8528 28.192C75.9488 28.192 76.1048 28.012 76.3688 27.592C77.0768 26.404 78.0368 24.604 78.9728 24.604C79.4408 24.604 79.6928 25.036 79.5488 25.564C79.4288 26.02 79.1648 26.236 78.9368 26.236C78.7808 26.236 78.6968 26.116 78.6488 25.864C78.6128 25.684 78.5888 25.54 78.3728 25.54C78.0848 25.54 77.7968 25.78 76.4768 27.904C75.8528 28.9 75.4568 29.572 75.0248 30.484C74.7608 31.036 74.5808 31.18 74.3528 31.18ZM79.035 31.18C78.387 31.18 78.051 30.592 78.291 29.668C78.855 27.556 80.979 25.264 83.031 25.132C83.403 25.108 83.631 24.976 83.967 24.748C84.135 24.64 84.267 24.556 84.411 24.556C84.651 24.556 84.675 24.784 84.567 25.108C84.447 25.528 84.063 26.524 82.911 29.548C82.707 30.1 82.803 30.316 83.067 30.316C83.403 30.316 83.967 29.752 84.303 29.332C84.375 29.236 84.423 29.224 84.459 29.224C84.531 29.224 84.579 29.296 84.519 29.404C84.159 30.016 83.103 31.18 82.371 31.18C81.903 31.18 81.723 30.712 82.155 29.656C82.251 29.392 82.383 29.14 82.467 28.936C82.527 28.78 82.503 28.708 82.419 28.708C82.371 28.708 82.299 28.756 82.155 28.924C81.771 29.392 80.187 31.18 79.035 31.18ZM79.563 30.304C80.739 30.304 82.671 28.372 83.307 26.632C83.607 25.804 83.391 25.516 82.851 25.516C81.459 25.516 79.599 27.712 79.179 29.224C78.939 30.1 79.215 30.304 79.563 30.304ZM85.555 31.18C85.327 31.18 85.231 30.964 85.411 30.34C85.495 30.004 85.567 29.596 85.939 28.372C86.227 27.376 86.767 25.42 87.811 23.908C89.035 22.132 90.787 21.028 92.335 21.028C92.899 21.028 93.271 21.484 93.199 21.76C93.139 21.976 92.731 21.988 92.095 21.988C90.499 21.988 89.287 22.54 88.567 23.524C87.679 24.736 87.415 26.02 86.779 28C86.731 28.144 86.755 28.216 86.815 28.216C86.875 28.216 86.959 28.18 87.055 28.036C88.279 26.212 89.635 24.7 90.607 24.7C91.147 24.7 91.519 25.072 91.339 26.272C91.231 27.016 90.847 28.144 90.355 29.044C89.659 30.292 88.675 31.18 87.907 31.18C87.607 31.18 87.499 31 87.571 30.748C87.667 30.448 88.003 30.136 88.507 30.136C89.071 30.136 89.503 29.932 89.791 29.38C90.079 28.816 90.379 27.82 90.511 26.932C90.667 25.924 90.535 25.528 90.103 25.528C89.443 25.528 87.931 26.956 86.911 28.792C86.575 29.392 86.443 29.824 86.275 30.268C85.987 31.024 85.819 31.18 85.555 31.18ZM92.4681 31.168C92.0001 31.168 91.9281 30.724 92.3601 29.68C92.7801 28.672 93.3321 27.52 93.8721 26.236C94.0521 25.804 93.9801 25.624 93.8121 25.624C93.6321 25.624 93.1761 25.912 92.6721 26.404C92.5761 26.5 92.4921 26.584 92.4201 26.584C92.3121 26.584 92.2881 26.464 92.4081 26.332C93.1281 25.48 94.2921 24.7 94.7361 24.7C95.1201 24.7 95.2401 24.928 94.8081 25.864C93.7761 28.096 93.6441 28.3 93.2001 29.452C92.9841 30.028 93.0801 30.292 93.3201 30.292C93.6921 30.292 94.3521 29.572 94.6281 29.296C94.7241 29.2 94.7841 29.152 94.8561 29.152C94.9281 29.152 94.9281 29.26 94.8801 29.332C94.5561 29.848 93.3441 31.168 92.4681 31.168ZM95.0481 23.944C94.6641 23.944 94.4121 23.596 94.5081 23.224C94.6041 22.852 95.0121 22.516 95.3961 22.516C95.7801 22.516 96.0321 22.852 95.9361 23.224C95.8401 23.596 95.4321 23.944 95.0481 23.944ZM96.4555 31.18C96.1315 31.18 96.1075 30.928 96.4195 30.1C97.7035 26.752 97.7515 26.14 97.7635 25.876C97.7755 25.684 97.6675 25.54 97.5235 25.54C97.1395 25.54 96.4075 26.5 96.1075 26.836C96.0475 26.908 95.9995 26.92 95.9635 26.92C95.8795 26.92 95.8795 26.8 95.9275 26.716C96.2035 26.224 97.4035 24.7 98.1835 24.7C98.6035 24.7 98.7715 25.192 98.4595 26.248C98.3155 26.74 98.0875 27.352 97.8475 27.952C97.7875 28.096 97.8955 28.168 97.9675 28.168C98.0635 28.168 98.1595 28.072 98.4715 27.676C99.2995 26.608 100.836 24.7 101.844 24.7C102.312 24.7 102.528 25.144 102.084 26.2L101.364 27.94C101.292 28.108 101.352 28.168 101.472 28.168C101.556 28.168 101.688 28.048 101.952 27.724C102.804 26.62 104.232 24.7 105.276 24.7C105.792 24.7 105.924 25.096 105.372 26.428C104.952 27.436 104.568 28.372 104.28 29.224C104.016 30.016 104.028 30.28 104.292 30.28C104.496 30.28 104.928 29.98 105.36 29.608C105.444 29.536 105.504 29.512 105.552 29.512C105.648 29.512 105.648 29.596 105.552 29.728C105.084 30.292 104.028 31.18 103.428 31.18C103.02 31.18 102.948 30.892 103.236 30.112C104.04 27.94 104.472 26.896 104.652 26.332C104.784 25.924 104.772 25.612 104.496 25.612C104.04 25.612 103.236 26.536 102.12 27.916C101.376 28.84 100.92 29.8 100.596 30.484C100.344 31.024 100.152 31.18 99.9355 31.18C99.6355 31.18 99.6115 30.916 99.9115 30.1C100.704 27.952 101.112 26.896 101.292 26.332C101.424 25.924 101.352 25.612 101.112 25.612C100.584 25.612 99.6955 26.56 98.6875 27.82C97.8355 28.876 97.4275 29.8 97.1035 30.484C96.8515 31.024 96.6715 31.18 96.4555 31.18Z" fill="#B8962E"/>
<defs>
<filter id="filter0_dd_12631_1563" x="0" y="0" width="38" height="38" filterUnits="userSpaceOnUse" color-interpolation-filters="sRGB">
<feFlood flood-opacity="0" result="BackgroundImageFix"/>
<feColorMatrix in="SourceAlpha" type="matrix" values="0 0 0 0 0 0 0 0 0 0 0 0 0 0 0 0 0 0 127 0" result="hardAlpha"/>
<feOffset dy="1"/>
<feGaussianBlur stdDeviation="1"/>
<feColorMatrix type="matrix" values="0 0 0 0 0.0627451 0 0 0 0 0.0941176 0 0 0 0 0.156863 0 0 0 0.06 0"/>
<feBlend mode="normal" in2="BackgroundImageFix" result="effect1_dropShadow_12631_1563"/>
<feColorMatrix in="SourceAlpha" type="matrix" values="0 0 0 0 0 0 0 0 0 0 0 0 0 0 0 0 0 0 127 0" result="hardAlpha"/>
<feOffset dy="1"/>
<feGaussianBlur stdDeviation="1.5"/>
<feColorMatrix type="matrix" values="0 0 0 0 0.0627451 0 0 0 0 0.0941176 0 0 0 0 0.156863 0 0 0 0.1 0"/>
<feBlend mode="normal" in2="effect1_dropShadow_12631_1563" result="effect2_dropShadow_12631_1563"/>
<feBlend mode="normal" in="SourceGraphic" in2="effect2_dropShadow_12631_1563" result="shape"/>
</filter>
</defs>
</svg>
