<svg width="32" height="32" viewBox="0 0 32 32" fill="none" xmlns="http://www.w3.org/2000/svg">
<path fill-rule="evenodd" clip-rule="evenodd" d="M16.0313 0C16.1573 1.07022 16.4294 2.06628 17.1726 2.81093C18.0971 3.75788 19.1328 4.15478 17.6166 5.13106C16.4535 5.87994 20.0879 7.92777 20.6725 8.36293C21.1773 8.7328 21.6526 9.14247 22.0938 9.58861C24.6031 12.1291 24.0864 14.6178 24.0859 17.8999L24.0843 24.8569C20.779 25.4146 18.9702 26.0806 16.0005 27.4534C15.4461 27.2235 14.8287 26.8492 14.2065 26.5944C12.312 25.8179 9.98859 25.1164 7.96302 24.8833C7.91358 23.2563 7.95158 21.4506 7.95205 19.8103L7.95364 16.7328L6.90568 16.672C6.95023 20.6418 6.91237 24.6942 6.91065 28.6703L4.30162 28.6682C4.22552 23.8425 4.29688 18.8191 4.30026 13.9728C5.51559 13.9628 6.73099 13.9993 7.94357 14.0828C8.04553 12.1354 8.65945 10.8403 10.0543 9.47542C10.4737 9.07052 10.9194 8.69433 11.3883 8.35006C12.303 7.67234 13.3509 7.05655 14.2487 6.28125C15.9335 4.82636 12.0486 5.00347 14.4972 3.16096C15.589 2.33935 15.7511 1.26269 16.0313 0ZM10.5549 22.6532C12.0721 23.0385 13.2322 23.3695 14.7124 23.9393L14.7099 18.8578C13.2943 17.9713 12.2017 17.5214 10.5598 17.1355L10.5549 22.6532ZM21.4145 17.1556C19.744 17.5473 18.7679 17.9496 17.3246 18.8598C17.3209 19.4556 17.2579 23.7442 17.3845 23.9324C18.8166 23.4144 19.9824 23.029 21.4805 22.6701C21.4791 22.1711 21.5181 17.276 21.4145 17.1556ZM16.01 8.2479C13.8539 10.0691 10.6006 11.203 10.5509 14.4122C12.3439 14.8139 13.9282 15.2938 15.513 16.2485C15.6615 16.3384 15.8814 16.4774 16.0303 16.5472C17.7685 15.4773 19.4731 14.7832 21.4869 14.4195C21.4696 13.6583 21.3934 13.0007 20.9563 12.3331C19.855 10.6506 17.9245 9.84024 16.4444 8.5746C16.3555 8.49859 16.101 8.27772 16.01 8.2479Z" fill="url(#paint0_linear_12632_2077)"/>
<path d="M25.1255 13.9755C25.9947 13.9665 26.8641 13.9692 27.7333 13.9834C27.6696 18.7235 27.7267 23.5983 27.726 28.3494C23.5438 28.3013 19.4507 29.5774 16.0153 32C14.0392 30.5759 12.851 30.041 10.5367 29.2824C9.68103 29.0445 8.83144 28.8167 7.95525 28.6719C7.94994 27.7775 7.95129 26.8825 7.95926 25.9881C10.8225 26.3899 13.5036 27.381 16.0194 28.8014C18.9666 27.1675 21.755 26.198 25.1299 25.8475C25.0792 21.93 25.1254 17.9015 25.1255 13.9755Z" fill="url(#paint1_linear_12632_2077)"/>
<defs>
<linearGradient id="paint0_linear_12632_2077" x1="4.26666" y1="0" x2="27.7333" y2="-1.79387e-09" gradientUnits="userSpaceOnUse">
<stop stop-color="#079455"/>
<stop offset="1" stop-color="#17B26A"/>
</linearGradient>
<linearGradient id="paint1_linear_12632_2077" x1="4.26666" y1="0" x2="27.7333" y2="-1.79387e-09" gradientUnits="userSpaceOnUse">
<stop stop-color="#079455"/>
<stop offset="1" stop-color="#17B26A"/>
</linearGradient>
</defs>
</svg>
